<?xml version="1.0" standalone="no"?>
<!DOCTYPE svg PUBLIC "-//W3C//DTD SVG 20010904//EN" "http://www.w3.org/TR/2001/REC-SVG-20010904/DTD/svg10.dtd">
<svg
  version="1.0"
  xmlns="http://www.w3.org/2000/svg"
  width="166.000000pt"
  height="154.000000pt"
  viewBox="0 0 166.000000 154.000000"
  preserveAspectRatio="xMidYMid meet"
>
  <g
    transform="translate(0.000000,154.000000) scale(0.100000,-0.100000)"
    fill="#5E37FF"
    stroke="none"
  >
    <path
      d="M1034 1460 c-57 -18 -57 -19 -314 -635 l-188 -450 -219 -161 -220
-161 210 -6 c262 -9 662 -9 670 -1 5 6 -8 47 -37 115 l-15 36 51 67 c44 57 52
75 56 120 5 61 -19 119 -68 163 -36 32 -37 56 -7 125 42 95 71 96 83 2 10 -77
16 -81 58 -44 49 43 66 79 66 137 0 50 -20 94 -65 143 -43 47 -41 66 7 114 56
56 84 63 289 72 l167 7 11 87 c14 107 14 166 1 190 -14 25 -56 38 -205 61
-162 24 -291 32 -331 19z m185 -124 c7 -8 11 -30 9 -48 -3 -29 -7 -33 -35 -36
-33 -3 -63 25 -63 58 0 37 65 56 89 26z"
    />
    <path
      d="M1224 904 c-8 -30 0 -252 9 -261 13 -13 55 28 82 80 27 51 28 56 15
101 -8 30 -25 57 -47 76 -41 37 -51 37 -59 4z"
    />
    <path
      d="M1225 520 c-3 -6 -17 -42 -30 -80 -34 -99 -77 -154 -152 -197 -35
-19 -63 -37 -63 -39 0 -2 18 -40 40 -84 l40 -80 145 0 c79 0 146 3 149 8 2 4
-11 43 -29 87 -19 44 -34 88 -35 99 0 10 12 45 26 78 24 52 26 63 16 97 -7 21
-25 56 -42 79 -29 41 -53 52 -65 32z"
    />
  </g>
</svg>
